<?xml version="1.0" standalone="no"?>
<!DOCTYPE svg PUBLIC "-//W3C//DTD SVG 20010904//EN"
 "http://www.w3.org/TR/2001/REC-SVG-20010904/DTD/svg10.dtd">
<svg version="1.0" xmlns="http://www.w3.org/2000/svg"
 width="640.000000pt" height="640.000000pt" viewBox="0 0 640.000000 640.000000"
 preserveAspectRatio="xMidYMid meet">
<metadata>
Created by potrace 1.11, written by Peter Selinger 2001-2013
</metadata>
<g transform="translate(0.000000,640.000000) scale(0.100000,-0.100000)"
fill="#000000" stroke="none">
<path d="M3507 5002 c-4 -6 -40 -132 -50 -177 -2 -5 -6 -16 -10 -22 -5 -7 -6
-13 -4 -13 3 0 -6 -39 -20 -87 -24 -87 -62 -224 -68 -253 -2 -8 -32 -114 -65
-235 -34 -121 -64 -229 -65 -240 -2 -11 -27 -101 -55 -200 -27 -99 -52 -189
-54 -200 -3 -11 -5 -20 -7 -20 -1 0 -3 -9 -5 -20 -1 -11 -10 -45 -19 -75 -25
-87 -97 -349 -110 -400 -2 -8 -4 -15 -5 -15 -1 0 -3 -11 -6 -24 -5 -28 -33
-129 -41 -151 -3 -8 -7 -22 -9 -30 -2 -8 -22 -82 -44 -165 -23 -82 -47 -172
-54 -200 -8 -27 -30 -111 -51 -185 -20 -74 -39 -142 -40 -150 -2 -8 -4 -15 -5
-15 -1 0 -3 -7 -5 -15 -1 -8 -8 -35 -15 -60 -7 -25 -14 -52 -16 -60 -2 -8 -14
-52 -27 -97 -14 -46 -22 -83 -20 -83 3 0 0 -7 -7 -15 -7 -9 -10 -18 -7 -21 3
-4 0 -23 -8 -43 -27 -71 -66 -234 -58 -242 4 -4 42 -17 83 -28 41 -11 109 -29
150 -40 41 -11 82 -21 91 -21 12 0 30 52 79 233 34 127 74 273 87 322 14 50
26 95 27 100 5 19 27 100 41 150 29 99 87 310 91 329 2 10 14 58 28 105 13 47
27 100 31 116 5 17 9 35 11 40 2 6 7 26 13 45 5 19 30 112 56 205 25 94 48
177 50 186 2 9 13 47 24 85 11 38 22 78 23 89 2 11 7 26 11 33 5 6 6 12 3 12
-3 0 1 18 9 40 8 22 14 41 14 43 0 1 2 9 4 17 3 8 10 35 16 60 17 68 16 62 71
260 28 102 53 192 55 200 1 8 10 42 19 75 10 33 19 67 21 75 2 8 4 15 5 15 2
0 5 12 13 50 3 11 10 40 17 65 7 25 13 50 15 55 1 6 5 17 8 25 5 13 14 49 22
85 2 6 15 53 29 105 15 52 29 104 31 115 3 11 14 51 25 90 11 38 20 75 20 81
0 7 -17 15 -37 19 -21 5 -42 10 -48 11 -5 2 -50 15 -100 29 -49 14 -101 28
-114 31 -14 3 -28 7 -32 10 -4 2 -10 1 -12 -4z"/>
<path d="M965 4005 c-437 -437 -795 -799 -795 -805 0 -13 1577 -1590 1590
-1590 6 0 116 106 245 235 l235 235 -560 560 -560 560 555 555 c305 305 555
559 555 565 0 6 -106 116 -235 245 l-235 235 -795 -795z"/>
<path d="M4393 4554 l-233 -234 560 -560 560 -560 -560 -560 -560 -560 235
-235 c129 -129 239 -235 245 -235 6 0 368 358 805 795 l795 795 -795 795
c-437 437 -801 795 -807 794 -7 0 -118 -106 -245 -235z"/>
</g>
</svg>
